<svg version="1.2" xmlns="http://www.w3.org/2000/svg" viewBox="0 0 1000 1000" width="1000" height="1000"><style>.a{fill:none;stroke:#000;stroke-miterlimit:100;stroke-width:40}.b{fill:none;stroke:#000;paint-order:stroke fill markers;stroke-miterlimit:100;stroke-width:20}.c{fill:none;stroke:#000;paint-order:stroke fill markers;stroke-miterlimit:100;stroke-width:40}</style><path class="a" d="m528.6 437.6c-6.4-6.3-50.1-2.1-52.6-2.4-1.7-0.2-3.4 0.6-5 2.3-2.4 2.6-2.5 3.1-2.5 17.5 0 8.2-0.2 15.1-0.5 15.4-1 1-18.2 2.5-39.5 3.6-11.5 0.5-25.5 1.7-31 2.5-8.5 1.4-10.8 2.1-15.5 5.3-9.3 6.3-13 15-16 37.7-0.5 3.8-2.2 17.6-3.9 30.5-1.7 12.9-3.5 27.1-4 31.5-0.6 4.4-1.3 11.6-1.6 16-0.4 4.4-1 11.4-1.5 15.5-0.5 4.1-1.7 24.3-2.5 44.8-1.3 29.9-1.4 42.1-0.6 61 0.6 13 1.3 32.2 1.6 42.7 1.2 36.9 5.9 82.8 12.5 121 1.2 6.6 2.5 14.7 3.1 18 2.1 12.3 4.4 18 9.8 23.8 7.6 8.3 20.1 10.3 79.6 12.8 28.6 1.2 92.2 0.6 110.5-1 6.3-0.6 17.4-1.5 24.5-2 16.9-1.3 21.5-2.9 28.5-10 4.5-4.6 5.9-6.9 7.7-12.6 1.2-3.9 2.4-9 2.8-11.5 11.7-82.5 14.8-116.1 16.1-174.5 0.7-29.8-0.6-74.7-2.7-94.5-0.5-5.2-1.4-14.9-1.9-21.5-1.2-15.9-3.8-41.9-4.5-45.9-0.3-1.7-1.2-8.5-2-15.1-5.3-44.1-8.2-56.4-15.3-63.8-6.4-6.8-10.7-7.6-54.7-9.8-22.8-1.1-32.9-2.4-35.2-4.7-1-1-1.3-5.2-1.3-16.2 0-14.1-0.1-15-2.2-17-1.2-1.1-3.4-2-4.9-2-1.5 0-3-0.4-3.3-0.9m-50.3-363.6"/><path class="b" d="m470.3 71.5c-2.5 4-2.1 8-3.3 30-0.7 12.6-1.5 26-1.7 29.7-0.4 5.7-0.2 6.9 1.6 8.7 1.2 1.2 3.4 2.1 5 2.1 1.6 0 3.1 0.6 3.4 1.4 0.3 0.8 0.6 39.6 0.6 86.3 0.1 46.6 0.6 108.2 1.2 136.8 0.6 28.6 1.1 56 1.2 61 0.2 9 0.2 9-2.3 8.7-1.7-0.2-3.4 0.6-5 2.3-2.4 2.6-2.5 3.1-2.5 17.5 0 8.2-0.2 15.1-0.5 15.4-1 1-18.2 2.5-39.5 3.6-11.5 0.5-25.5 1.7-31 2.5-8.5 1.4-10.8 2.1-15.5 5.3-9.3 6.3-13 15-16 37.7-0.5 3.8-2.2 17.6-3.9 30.5-1.7 12.9-3.5 27.1-4 31.5-0.6 4.4-1.3 11.6-1.6 16-0.4 4.4-1 11.4-1.5 15.5-0.5 4.1-1.7 24.3-2.5 44.8-1.3 29.9-1.4 42.1-0.6 61 0.6 13 1.3 32.2 1.6 42.7 1.2 36.9 5.9 82.8 12.5 121 1.2 6.6 2.5 14.7 3.1 18 2.1 12.3 4.4 18 9.8 23.8 7.6 8.3 20.1 10.3 79.6 12.8 28.6 1.2 92.2 0.6 110.5-1 6.3-0.6 17.4-1.5 24.5-2 16.9-1.3 21.5-2.9 28.5-10 4.5-4.6 5.9-6.9 7.7-12.6 1.2-3.9 2.4-9 2.8-11.5 11.7-82.5 14.8-116.1 16.1-174.5 0.7-29.8-0.6-74.7-2.7-94.5-0.5-5.2-1.4-14.9-1.9-21.5-1.2-15.9-3.8-41.9-4.5-45.9-0.3-1.7-1.2-8.5-2-15.1-5.3-44.1-8.2-56.4-15.3-63.8-6.4-6.8-10.7-7.6-54.7-9.8-22.8-1.1-32.9-2.4-35.2-4.7-1-1-1.3-5.2-1.3-16.2 0-14.1-0.1-15-2.2-17-1.2-1.1-3.4-2-4.9-2-1.5 0-3-0.4-3.3-0.9-0.3-0.5-0.6-65.8-0.6-145.2 0-144.4 0-144.4 2.8-144.5 4-0.2 7.1-2.1 7.6-4.7 0.7-3.6 2.5-63.8 1.9-65.3-0.9-2.5-7.1-5.5-10.5-5.2-2.6 0.2-3.3-0.1-3.6-1.7-0.9-4.6-2.5-5.2-17.1-5.8-7.6-0.4-14.2-0.3-15-0.2-5.3 0.7-4.1 4.7-5.6 5.3-1.9 0.7-8.8 1.3-10.2 3.7z"/><path class="c" d="m505.7 666.2c3.4 3.2 3.2 9.9-0.4 13.3-6 5.5-15.3 1.5-15.3-6.5 0-8.8 9.3-12.8 15.7-6.8z"/></svg>