<svg version="1.2"
    xmlns="http://www.w3.org/2000/svg" viewBox="0 0 960 960" width="960" height="960">
    <path fill-rule="evenodd" d="m689.1 192.1c14.5-0.2 27.9 7.4 35.2 19.9l229.5 393.9c4 6.7 5.8 14.5 5.4 22.4l-1.2 21.8c-1.1 19.4-16 35.2-35.4 37.4l-41.1 4.8q0.5-5.6 0.5-11.3c0-9.9-1.2-19.5-3.4-28.6l39.4-4.6 0.8-13.5-44.2 5c-2.5-6.7-5.5-13-9.1-19.1l47.3-5.3-51.1-87.6-114.3 9.8 13.6 23.9c-7.5 0.1-14.8 0.8-21.8 2.2l-13.7-24.2-136.6 11.8 50.1 95 8.5-0.9c-2.1 6.6-3.6 13.5-4.5 20.6l-353.5 40-3.3 15.4 355.8-41.2q0 0.7 0 1.3c0 13.4 2.2 26.3 6.2 38.3l-372.7 43.1c-17 2-33.3-7.1-40.7-22.5l-229.1-480.9c-12.5-26.3 6.4-56.8 35.6-57.2zm-638.8 49.5l-8.5 0.1 225.2 472.8 2.7-12.5q-0.3-0.5-0.6-1l-112.4-236zm348.5 325.5l-164.5 14.1 20.8 43.9 28.9 60.4 0.1 0.4 164.6-18.7zm168.5-14.5l-147.1 12.7 49.7 99.6 147.7-16.7zm-224.2-97.2l-164.2 9.6 46.2 97.1 164.1-14.2zm167.9-9.8l-146.2 8.5 45.8 91.9 146.5-12.6zm156.4-9.1l-134.4 7.8 45.9 87.2 135.7-11.7zm136.9-8l-114.6 6.7 46.9 82.8 114.1-9.9zm-513.7-78.8l-163.2 7 42.4 89q1.1-0.3 2.2-0.4l161.5-9.4zm166.3-7.2l-144.4 6.3 42.8 85.9 145.7-8.5zm153.4-6.6l-131.3 5.7 43.8 83.4 133.6-7.8zm136.5-5.9l-114 4.9 45.9 81 114.3-6.6zm-511.4-91l-162.9 2.4 45.6 95.8 162.8-7zm165.6-2.5l-143.5 2.1 45.2 90.6 143.8-6.2zm151.6-2.3l-129.1 1.9 45.1 85.9 130.6-5.7zm137.2-2l-114.4 1.7 46.2 81.4 113.8-4.9z"/>
    <path fill-rule="evenodd" d="m762 809c-70.8 0-128-57.2-128-128 0-70.8 57.2-128 128-128 70.8 0 128 57.2 128 128 0 70.8-57.2 128-128 128zm-6.6-206.1l-48 96h48l-16 64 80-96h-48l16-64z"/>
</svg>