<?xml version="1.0" encoding="UTF-8"?>
<svg width="64px" height="64px" viewBox="0 0 64 64" version="1.1" xmlns="http://www.w3.org/2000/svg" xmlns:xlink="http://www.w3.org/1999/xlink">
    <title>measure_monetary</title>
    <g id="measure_monetary" stroke="none" stroke-width="1" fill="none" fill-rule="evenodd">
        <path d="M43,30 C50.872228,30 57.5432674,33.204846 57.9775301,38.0004179 L58,38 L58,45.3333333 C58,50.4821865 51.1402636,54 43,54 C34.8597364,54 28,50.4821865 28,45.3333333 L28,38 L28.0224699,38.0004179 C28.4567326,33.204846 35.127772,30 43,30 Z M54.0011008,44.3962932 C51.238685,46.04451 47.2984031,47 43,47 C38.7021131,47 34.7622614,46.0447395 31.9998945,44.3968869 L31.9998945,45.3333333 C31.9998945,47.5482769 36.7808601,50 43,50 C49.2191399,50 54,47.5482769 54,45.3333333 L54.0011008,44.3962932 Z M43,34 C36.7831462,34 32,36.3915731 32,38.5 C32,40.6084269 36.7831462,43 43,43 C49.2168538,43 54,40.6084269 54,38.5 C54,36.3915731 49.2168538,34 43,34 Z M52,13 C54.209139,13 56,14.790861 56,17 L56.0009931,31.5135044 C54.8587881,30.6964133 53.5092926,30.0069818 52.0021713,29.4611427 L52.0011864,22.8997409 C51.6777087,22.9654854 51.342885,23 51,23 C48.2385763,23 46,20.7614237 46,18 C46,17.6574677 46.0344436,17.3229802 46.1000563,16.999812 L17.8999437,16.999812 C17.9655564,17.3229802 18,17.6574677 18,18 C18,20.7614237 15.7614237,23 13,23 C12.6574677,23 12.3229802,22.9655564 11.999812,22.8999437 L11.999812,32.1000563 C12.3229802,32.0344436 12.6574677,32 13,32 C15.7614237,32 18,34.2385763 18,37 C18,37.342885 17.9654854,37.6777087 17.8997409,38.0011864 L26,38.001 L26,42 L12,42 C9.790861,42 8,40.209139 8,38 L8,17 C8,14.790861 9.790861,13 12,13 L52,13 Z" id="Shape" fill="#000000" fill-rule="nonzero"></path>
    </g>
</svg>