<?xml version="1.0" encoding="utf-8"?>
<!-- Generator: Adobe Illustrator 26.0.1, SVG Export Plug-In . SVG Version: 6.00 Build 0)  -->
<svg version="1.1" id="Layer_1" xmlns="http://www.w3.org/2000/svg" xmlns:xlink="http://www.w3.org/1999/xlink" x="0px" y="0px"
	 viewBox="0 0 175 175" style="enable-background:new 0 0 175 175;" xml:space="preserve">
<style type="text/css">
	.st0{fill:#080D14;}
</style>
<g>
	<g>
		<circle class="st0" cx="142.7" cy="29" r="12.5"/>
	</g>
	<g>
		<path class="st0" d="M87.5,174.4c-47.9,0-86.9-39-86.9-86.9s39-86.9,86.9-86.9c9.5,0,18.9,1.5,27.9,4.6c3.4,1.2,5.2,4.8,4.1,8.2
			c-1.2,3.4-4.8,5.2-8.2,4.1c-7.6-2.6-15.6-3.9-23.7-3.9c-40.7,0-73.9,33.1-73.9,73.9s33.1,73.9,73.9,73.9s73.9-33.1,73.9-73.9
			c0-9.6-1.8-19-5.4-27.9c-1.4-3.3,0.2-7.1,3.6-8.5c3.3-1.4,7.1,0.2,8.5,3.6c4.2,10.4,6.4,21.4,6.4,32.8
			C174.4,135.4,135.4,174.4,87.5,174.4z"/>
	</g>
	<g>
		<path class="st0" d="M82.7,106.2l35.5-40.5V51.6H57.3v17.2h35L56,109.5v13.9h63v-17.2H82.7z"/>
	</g>
</g>
</svg>
